<?xml version="1.0" encoding="utf-8"?>
<!-- Generator: Adobe Illustrator 18.0.0, SVG Export Plug-In . SVG Version: 6.00 Build 0)  -->
<!DOCTYPE svg PUBLIC "-//W3C//DTD SVG 1.1//EN" "http://www.w3.org/Graphics/SVG/1.1/DTD/svg11.dtd">
<svg version="1.1" id="Layer_1" xmlns="http://www.w3.org/2000/svg" xmlns:xlink="http://www.w3.org/1999/xlink" x="0px" y="0px"
	 viewBox="0 0 612 792" enable-background="new 0 0 612 792" xml:space="preserve">
<g>
	<g>
		<path fill="#FFFFFF" d="M483.2,467c-12-25-55-59.8-96.5-93.4c-23.2-18.7-45-36.4-59-50.4c-3.5-3.5-8.7-4.6-13.3-3
			c-8.6,3.1-13.9,5.5-18.1,7.4c-6.4,2.9-8.5,3.8-17.1,4.7c-3.8,0.4-7.2,2.4-9.3,5.6c-18,27-36.7,24.7-49.2,20.5
			c-4-1.3-4.7-3-5.1-4.7c-2.7-11.2,10.8-37.3,28.2-54.7c41.4-41.5,62.8-51.8,107.9-31.7c51.2,22.9,102.5,40.8,103,41
			c6.7,2.3,13.9-1.2,16.2-7.9c2.3-6.7-1.2-13.9-7.9-16.2c-0.5-0.2-50.8-17.7-101-40.2c-58.5-26.1-90.6-8.9-136.4,36.9
			c-17.4,17.4-41.1,52.7-35,78.6c2.6,11,10.4,19.2,21.9,23c28.9,9.5,55.3,0.4,74.9-25.7c8.1-1.2,12.5-3.1,19.2-6.1
			c2.4-1.1,5.2-2.3,8.9-3.8c14.6,13.7,34.3,29.6,55,46.4c37.5,30.3,80,64.7,89.6,84.6c4.7,9.8-0.4,16.2-3.8,19.2
			c-5,4.3-12,5.7-15.7,3.1c-4.1-2.8-9.5-3-13.8-0.5c-4.3,2.5-6.7,7.4-6.1,12.3c0.9,8.1-6.6,12.8-9.8,14.4
			c-8.2,4.1-16.7,3.4-19.9,0.5c-3.6-3.3-8.7-4.3-13.2-2.6c-4.5,1.7-7.7,5.9-8.2,10.7c-0.8,8.4-7,16.4-15,19.5
			c-3.9,1.5-9.6,2.4-14.6-2.3c-3.2-2.9-7.5-4-11.7-3c-4.2,1-7.5,4-9,8c-0.5,1.3-1.6,4.3-13.5,4.3c-8.5,0-23.8-5.7-31.2-10.7
			c-9-5.9-65.1-47.8-113.6-88.4c-6.8-5.7-18.6-18-29-28.9c-9.2-9.6-17.7-18.4-22-22.1c-5.4-4.6-13.5-3.9-18,1.5
			c-4.5,5.4-3.9,13.4,1.5,18c4,3.3,11.6,11.4,20,20.2c11.4,11.9,23.1,24.2,31,30.8c47.5,39.8,104.6,82.7,115.9,90.1
			c9.4,6.2,29.6,14.8,45.3,14.8c12.6,0,22.2-2.9,28.9-8.5c9,3.5,19.2,3.5,29-0.3c11.6-4.5,21.1-13.5,26.5-24.5
			c10,2.1,21.5,0.6,32-4.6c10.2-5.2,17.6-13,21.3-22.2c10.1,0.5,20.6-3.1,29.2-10.5C487.7,504.1,491.7,484.6,483.2,467z"/>
	</g>
</g>
<g>
	<g>
		<path fill="#FFFFFF" d="M255,255.7H140.2c-7,0-12.8,5.7-12.8,12.8s5.7,12.8,12.8,12.8H255c7,0,12.8-5.7,12.8-12.8
			S262,255.7,255,255.7z"/>
	</g>
</g>
<g>
	<g>
		<path fill="#FFFFFF" d="M520.6,439.9c-4-5.8-11.9-7.4-17.7-3.5l-37.3,25c-5.8,3.9-7.4,11.9-3.5,17.7c2.5,3.6,6.5,5.6,10.6,5.6
			c2.4,0,4.9-0.7,7.1-2.2l37.3-25C523,453.7,524.5,445.7,520.6,439.9z"/>
	</g>
</g>
<g>
	<g>
		<path fill="#FFFFFF" d="M441.4,500.7c-9.1-7.2-50-49-75.2-75.3c-4.9-5.1-13-5.3-18-0.4c-5.1,4.9-5.3,13-0.4,18
			c6.6,6.8,64.4,67.1,77.8,77.7c2.3,1.8,5.1,2.7,7.9,2.7c3.7,0,7.5-1.7,10-4.9C447.9,513.1,447,505.1,441.4,500.7z"/>
	</g>
</g>
<g>
	<g>
		<path fill="#FFFFFF" d="M390.5,526.3c-15.3-12.2-53.7-53-62.3-62.4c-4.8-5.2-12.8-5.5-18-0.8c-5.2,4.8-5.5,12.9-0.8,18
			c0.5,0.5,46.3,49.9,65.2,65.1c2.3,1.9,5.2,2.8,8,2.8c3.7,0,7.4-1.7,10-4.8C396.9,538.7,396,530.7,390.5,526.3z"/>
	</g>
</g>
<g>
	<g>
		<path fill="#FFFFFF" d="M339.7,552c-18.2-15.3-55.4-54.9-62.7-62.7c-4.8-5.2-12.9-5.4-18-0.6c-5.2,4.8-5.4,12.9-0.6,18
			c10.5,11.2,46.1,48.9,64.8,64.8c2.4,2,5.3,3,8.2,3c3.6,0,7.2-1.6,9.8-4.5C345.8,564.6,345.1,556.5,339.7,552z"/>
	</g>
</g>
<g>
	<g>
		<path fill="#FFFFFF" d="M149,233.7c-21.9-20.7-109.2-27.4-135.5-29c-3.6-0.2-7,1-9.5,3.4c-2.6,2.4-4,5.8-4,9.3V447
			c0,7,5.7,12.8,12.8,12.8h76.5c5.5,0,10.4-3.5,12.1-8.8c1.9-5.7,45.8-140.6,51.6-206.9C153.3,240.2,151.9,236.4,149,233.7z
			 M79.9,434.2H25.5V231.2c41,3.2,85.2,10.3,101.3,18.1C120,305.1,89.4,404.3,79.9,434.2z"/>
	</g>
</g>
<g>
	<g>
		<path fill="#FFFFFF" d="M599.2,230.2c-100.1,0-155.7,25.6-158,26.7c-3.3,1.6-5.8,4.4-6.8,7.9c-1,3.5-0.5,7.2,1.4,10.4
			c15.8,25.4,65.1,166.3,74.6,200.7c1.5,5.5,6.6,9.4,12.3,9.4h76.5c7,0,12.8-5.7,12.8-12.8V243C612,235.9,606.3,230.2,599.2,230.2z
			 M586.5,459.7h-54.2c-12.1-39.4-47.8-142-67.7-184.5c19.5-6.6,61.3-18,121.9-19.4V459.7z"/>
	</g>
</g>
</svg>
